<?xml version="1.0" encoding="UTF-8"?>
<svg width="309px" height="37px" viewBox="0 0 309 37" version="1.1" xmlns="http://www.w3.org/2000/svg" xmlns:xlink="http://www.w3.org/1999/xlink">
    <!-- Generator: Sketch 44.1 (41455) - http://www.bohemiancoding.com/sketch -->
    <title>logo_sanmartin</title>
    <desc>Created with Sketch.</desc>
    <defs></defs>
    <g id="Page-1" stroke="none" stroke-width="1" fill="none" fill-rule="evenodd">
        <g id="Desktop-HD" transform="translate(-40.000000, -40.000000)" fill="#FFFFFF">
            <g id="logo_sanmartin" transform="translate(40.000000, 40.000000)">
                <g id="Group-2" transform="translate(5.215190, 0.000000)" opacity="0.512171649">
                    <path d="M8.8102552,9.64398736 L8.8102552,8.14995432 C8.5422372,8.3536861 8.09554054,8.48950729 7.49250006,8.58005474 C7.09047306,8.62532847 6.10774042,8.73851279 4.56663694,8.89697084 C2.89152448,9.05542889 2.06513566,9.66662423 2.06513566,10.70792 C2.06513566,12.043495 2.98086381,12.699964 4.83465494,12.699964 C5.83972242,12.699964 6.73311574,12.4509585 7.51483489,11.9529475 C8.38589337,11.3643891 8.8102552,10.5947357 8.8102552,9.64398736 M2.37782332,6.63328441 L1.12707268,6.63328441 C1.23874684,5.54671493 1.618439,4.73178781 2.24381432,4.18850307 C2.98086381,3.5999446 4.11994029,3.30566536 5.68337859,3.30566536 C7.24681689,3.30566536 8.38589337,3.55467087 9.07827319,4.05268189 C9.74831818,4.52805604 10.0833407,5.25243569 10.0833407,6.22582086 L10.0833407,11.3870259 C10.0833407,12.1114056 10.3290238,12.4735954 10.8203902,12.4735954 L11.5574396,12.4735954 L11.5574396,13.4017068 C11.0660733,13.4922543 10.6640463,13.537528 10.3960283,13.537528 C9.79298785,13.537528 9.36862602,13.3337962 9.14527769,12.9489696 C9.01126869,12.699964 8.94426419,12.3151374 8.92192936,11.7944895 L8.89959453,11.7944895 C8.02853605,13.1074276 6.55443707,13.7638967 4.41029311,13.7638967 C3.4498953,13.7638967 2.62350648,13.5601649 1.95346149,13.1300645 C1.12707268,12.5867797 0.702710851,11.8171263 0.702710851,10.7984674 C0.702710851,9.6213505 1.23874684,8.78378652 2.31081882,8.30841237 C2.98086381,7.99149627 4.05293579,7.78776449 5.50469993,7.7198539 C6.95646407,7.62930644 7.87219222,7.51612212 8.25188437,7.35766407 C8.63157653,7.22184289 8.8102552,6.90492679 8.8102552,6.40691577 C8.8102552,5.70517298 8.56457204,5.20716196 8.09554054,4.91288273 C7.60417422,4.61860349 6.7777854,4.48278231 5.66104376,4.48278231 C4.56663694,4.48278231 3.76258296,4.64124036 3.22654697,4.98079332 C2.71284581,5.32034629 2.42249298,5.86363103 2.37782332,6.63328441" id="Shape"></path>
                    <path d="M24.3552989,13.4696174 L24.3552989,11.5228471 C24.1319506,12.1114056 23.6852539,12.6094166 23.0152089,13.039517 C22.2334898,13.537528 21.3624313,13.7638967 20.3796986,13.7638967 C17.6101794,13.7638967 16.2254197,12.4056848 16.2254197,9.71189796 L16.2254197,3.5999446 L17.5878445,3.5999446 L17.5878445,9.96090346 C17.5878445,11.703942 18.5482423,12.5867797 20.469038,12.5867797 C23.0598786,12.5867797 24.3552989,11.3870259 24.3552989,8.94224457 L24.3552989,3.5999446 L25.7177237,3.5999446 L25.7177237,13.4696174 L24.3552989,13.4696174 Z" id="Shape"></path>
                    <path d="M32.1724904,3.5999446 L32.1724904,0.498694193 L33.5349152,0.498694193 L33.5349152,3.5999446 L36.23743,3.5999446 L36.23743,4.66387722 L33.5349152,4.66387722 L33.5349152,11.205931 C33.5349152,11.6586683 33.6242546,11.9755844 33.8252681,12.1793162 C34.0039467,12.3604111 34.361304,12.4509585 34.89734,12.4509585 C35.4557109,12.4509585 35.9024075,12.4056848 36.23743,12.3151374 L36.23743,13.5148912 C35.7237289,13.6054386 35.2323625,13.6280755 34.7409962,13.6280755 C33.7359287,13.6280755 33.0435489,13.4243437 32.6638567,13.0168801 C32.3288343,12.6546903 32.1724904,12.043495 32.1724904,11.1832941 L32.1724904,4.66387722 L30.095351,4.66387722 L30.095351,3.5999446 L32.1724904,3.5999446 Z" id="Shape"></path>
                    <path d="M42.5805226,8.53478101 C42.5805226,9.75717169 42.9602147,10.7305569 43.6749294,11.4775734 C44.4119789,12.2245899 45.3947115,12.5867797 46.667797,12.5867797 C47.9185476,12.5867797 48.9236151,12.2245899 49.6383298,11.4775734 C50.3753792,10.7305569 50.7327366,9.75717169 50.7327366,8.53478101 C50.7327366,7.31239034 50.3753792,6.33900518 49.6383298,5.59198866 C48.9236151,4.84497214 47.9185476,4.48278231 46.667797,4.48278231 C45.3947115,4.48278231 44.4119789,4.84497214 43.6749294,5.59198866 C42.9602147,6.33900518 42.5805226,7.31239034 42.5805226,8.53478101 M41.2180978,8.53478101 C41.2180978,7.06338484 41.6871292,5.84099416 42.5805226,4.89024586 C43.5632552,3.82631324 44.92568,3.30566536 46.667797,3.30566536 C48.4099139,3.30566536 49.7723388,3.82631324 50.7774062,4.89024586 C51.6484647,5.84099416 52.0951614,7.06338484 52.0951614,8.53478101 C52.0951614,10.0061772 51.6484647,11.2285679 50.7774062,12.1793162 C49.7723388,13.2432488 48.4099139,13.7638967 46.667797,13.7638967 C44.92568,13.7638967 43.5632552,13.2432488 42.5805226,12.1793162 C41.6871292,11.2285679 41.2180978,10.0061772 41.2180978,8.53478101" id="Shape"></path>
                    <path d="M57.5225258,13.4696174 L57.5225258,3.5999446 L58.8849506,3.5999446 L58.8849506,5.86363103 C59.6220001,4.16586621 60.8504159,3.30566536 62.570198,3.30566536 C62.838216,3.30566536 63.1285688,3.32830223 63.3965868,3.37357596 L63.3965868,4.82233527 C62.972225,4.75442468 62.5478632,4.70915095 62.1458362,4.70915095 C61.2747777,4.70915095 60.5377282,4.98079332 59.9570226,5.52407806 C59.2423079,6.18054713 58.8849506,7.15393229 58.8849506,8.44423356 L58.8849506,13.4696174 L57.5225258,13.4696174 Z" id="Shape"></path>
                    <path d="M68.8686209,7.81040136 L76.7528169,7.81040136 C76.5741383,6.67855814 76.1051068,5.8183573 75.3233876,5.22979883 C74.6533426,4.73178781 73.804619,4.48278231 72.8218863,4.48278231 C71.8391537,4.48278231 70.99043,4.73178781 70.320385,5.22979883 C69.4939962,5.84099416 69.0249647,6.67855814 68.8686209,7.81040136 M76.5071338,10.3230933 L77.8695586,10.3230933 C77.1548439,12.6094166 75.4350618,13.7638967 72.732547,13.7638967 C70.9234255,13.7638967 69.5833355,13.1979751 68.6452726,12.0661318 C67.8858882,11.1153835 67.5061961,9.9382666 67.5061961,8.53478101 C67.5061961,7.06338484 67.9305579,5.84099416 68.7792816,4.89024586 C69.7173445,3.82631324 71.0350997,3.30566536 72.732547,3.30566536 C74.2289808,3.30566536 75.4350618,3.66785519 76.3507899,4.39223485 C77.5345361,5.34298315 78.1152417,6.83701619 78.1152417,8.87433398 L68.8686209,8.87433398 C68.8686209,9.9382666 69.2036434,10.7984674 69.8960232,11.5002102 C70.6107379,12.2245899 71.5488008,12.5867797 72.732547,12.5867797 C73.8269538,12.5867797 74.6980123,12.4056848 75.3010528,12.0208581 C75.8594236,11.6586683 76.2614506,11.0927467 76.5071338,10.3230933" id="Shape"></path>
                    <path d="M83.8106241,17.2952475 L83.8106241,3.5999446 L85.1730489,3.5999446 L85.1730489,5.56935179 C85.8430939,4.05268189 87.1385142,3.30566536 89.0816447,3.30566536 C90.8907661,3.30566536 92.253191,3.87158697 93.1689191,5.00343019 C93.9283034,5.95417849 94.3079956,7.13129543 94.3079956,8.53478101 C94.3079956,10.0061772 93.8836338,11.2285679 93.0349101,12.1793162 C92.0968471,13.2432488 90.779092,13.7638967 89.0816447,13.7638967 C88.2105862,13.7638967 87.4065322,13.537528 86.6694827,13.1074276 C85.9994377,12.6773272 85.4857366,12.1566793 85.1730489,11.5002102 L85.1730489,17.2952475 L83.8106241,17.2952475 Z M85.0837096,8.53478101 C85.0837096,9.64398736 85.4187321,10.5720988 86.0441074,11.3191153 C86.7811569,12.1566793 87.8085592,12.5867797 89.1039795,12.5867797 C90.2207212,12.5867797 91.1364493,12.2245899 91.851164,11.4775734 C92.5882134,10.7531937 92.9455708,9.75717169 92.9455708,8.53478101 C92.9455708,7.42557466 92.6552179,6.49746323 92.0745123,5.77308357 C91.3821325,4.91288273 90.3993998,4.48278231 89.1039795,4.48278231 C87.9425682,4.48278231 86.9821704,4.82233527 86.2451209,5.54671493 C85.4857366,6.29373145 85.0837096,7.28975348 85.0837096,8.53478101 L85.0837096,8.53478101 Z" id="Shape"></path>
                    <path d="M107.909909,13.4696174 L107.909909,11.5228471 C107.68656,12.1114056 107.217529,12.6094166 106.547484,13.039517 C105.7881,13.537528 104.917041,13.7638967 103.911974,13.7638967 C101.142454,13.7638967 99.7576948,12.4056848 99.7576948,9.71189796 L99.7576948,3.5999446 L101.12012,3.5999446 L101.12012,9.96090346 C101.12012,11.703942 102.080517,12.5867797 104.023648,12.5867797 C106.614489,12.5867797 107.909909,11.3870259 107.909909,8.94224457 L107.909909,3.5999446 L109.272334,3.5999446 L109.272334,13.4696174 L107.909909,13.4696174 Z" id="Shape"></path>
                    <path d="M115.81644,7.81040136 L123.700636,7.81040136 C123.499622,6.67855814 123.030591,5.8183573 122.248872,5.22979883 C121.578827,4.73178781 120.752438,4.48278231 119.74737,4.48278231 C118.764638,4.48278231 117.938249,4.73178781 117.245869,5.22979883 C116.441815,5.84099416 115.950449,6.67855814 115.81644,7.81040136 M123.454953,10.3230933 L124.817377,10.3230933 C124.080328,12.6094166 122.360546,13.7638967 119.658031,13.7638967 C117.871244,13.7638967 116.508819,13.1979751 115.593091,12.0661318 C114.833707,11.1153835 114.454015,9.9382666 114.454015,8.53478101 C114.454015,7.06338484 114.878377,5.84099416 115.7271,4.89024586 C116.642828,3.82631324 117.960584,3.30566536 119.658031,3.30566536 C121.154465,3.30566536 122.360546,3.66785519 123.276274,4.39223485 C124.46002,5.34298315 125.063061,6.83701619 125.063061,8.87433398 L115.81644,8.87433398 C115.81644,9.9382666 116.151462,10.7984674 116.821507,11.5002102 C117.536222,12.2245899 118.474285,12.5867797 119.658031,12.5867797 C120.752438,12.5867797 121.623496,12.4056848 122.226537,12.0208581 C122.807242,11.6586683 123.209269,11.0927467 123.454953,10.3230933" id="Shape"></path>
                    <path d="M139.11167,6.52010009 L137.86092,6.52010009 C137.682241,5.75044671 137.347219,5.20716196 136.833517,4.89024586 C136.342151,4.61860349 135.605102,4.48278231 134.555364,4.48278231 C132.723908,4.48278231 131.80818,5.04870391 131.80818,6.15791026 C131.80818,6.67855814 132.031528,7.01811111 132.478225,7.19920602 C132.902587,7.4029378 133.862985,7.58403271 135.359418,7.78776449 C136.900522,8.01413314 137.950259,8.28577551 138.530965,8.64796534 C139.178675,9.05542889 139.491363,9.71189796 139.491363,10.6400094 C139.491363,11.6133946 139.11167,12.3830479 138.352286,12.9489696 C137.570567,13.4922543 136.43149,13.7638967 134.957391,13.7638967 C131.718841,13.7638967 130.110733,12.6320535 130.110733,10.368367 L131.361483,10.368367 C131.473158,11.205931 131.80818,11.7718526 132.321881,12.0887687 C132.857917,12.4283217 133.728976,12.5867797 134.957391,12.5867797 C137.079201,12.5867797 138.128938,11.9755844 138.128938,10.70792 C138.128938,10.209909 137.905589,9.82508228 137.414223,9.59871364 C136.900522,9.34970813 135.917789,9.14597635 134.466025,8.9875183 C132.991926,8.82906025 131.942189,8.55741788 131.339149,8.14995432 C130.736108,7.74249076 130.445755,7.0860217 130.445755,6.22582086 C130.445755,5.34298315 130.780778,4.64124036 131.450823,4.12059248 C132.187872,3.57730774 133.215275,3.30566536 134.555364,3.30566536 C137.436558,3.30566536 138.932992,4.36959799 139.11167,6.52010009" id="Shape"></path>
                    <path d="M146.683179,3.5999446 L146.683179,0.498694193 L148.045604,0.498694193 L148.045604,3.5999446 L150.770453,3.5999446 L150.770453,4.66387722 L148.045604,4.66387722 L148.045604,11.205931 C148.045604,11.6586683 148.157278,11.9755844 148.335956,12.1793162 C148.53697,12.3604111 148.894327,12.4509585 149.430363,12.4509585 C149.966399,12.4509585 150.413096,12.4056848 150.770453,12.3151374 L150.770453,13.5148912 C150.256752,13.6054386 149.743051,13.6280755 149.274019,13.6280755 C148.268952,13.6280755 147.576572,13.4243437 147.19688,13.0168801 C146.861857,12.6546903 146.683179,12.043495 146.683179,11.1832941 L146.683179,4.66387722 L144.606039,4.66387722 L144.606039,3.5999446 L146.683179,3.5999446 Z" id="Shape"></path>
                    <path d="M157.113546,8.53478101 C157.113546,9.75717169 157.470903,10.7305569 158.207953,11.4775734 C158.922667,12.2245899 159.927735,12.5867797 161.178485,12.5867797 C162.451571,12.5867797 163.434303,12.2245899 164.171353,11.4775734 C164.886068,10.7305569 165.243425,9.75717169 165.243425,8.53478101 C165.243425,7.31239034 164.886068,6.33900518 164.171353,5.59198866 C163.434303,4.84497214 162.451571,4.48278231 161.178485,4.48278231 C159.927735,4.48278231 158.922667,4.84497214 158.207953,5.59198866 C157.470903,6.33900518 157.113546,7.31239034 157.113546,8.53478101 M155.751121,8.53478101 C155.751121,7.06338484 156.197818,5.84099416 157.091211,4.89024586 C158.073944,3.82631324 159.436368,3.30566536 161.178485,3.30566536 C162.920602,3.30566536 164.283027,3.82631324 165.288095,4.89024586 C166.181488,5.84099416 166.60585,7.06338484 166.60585,8.53478101 C166.60585,10.0061772 166.181488,11.2285679 165.288095,12.1793162 C164.283027,13.2432488 162.920602,13.7638967 161.178485,13.7638967 C159.436368,13.7638967 158.073944,13.2432488 157.091211,12.1793162 C156.197818,11.2285679 155.751121,10.0061772 155.751121,8.53478101" id="Shape"></path>
                    <path d="M180.408776,6.52010009 L179.158026,6.52010009 C179.001682,5.75044671 178.644325,5.20716196 178.130623,4.89024586 C177.661592,4.61860349 176.902208,4.48278231 175.874805,4.48278231 C174.021014,4.48278231 173.105286,5.04870391 173.105286,6.15791026 C173.105286,6.67855814 173.328634,7.01811111 173.797666,7.19920602 C174.199693,7.4029378 175.160091,7.58403271 176.656525,7.78776449 C178.197628,8.01413314 179.2697,8.28577551 179.828071,8.64796534 C180.475781,9.05542889 180.810803,9.71189796 180.810803,10.6400094 C180.810803,11.6133946 180.408776,12.3830479 179.649392,12.9489696 C178.867673,13.4922543 177.750931,13.7638967 176.254498,13.7638967 C173.015947,13.7638967 171.407839,12.6320535 171.407839,10.368367 L172.658589,10.368367 C172.792598,11.205931 173.105286,11.7718526 173.641322,12.0887687 C174.155023,12.4283217 175.026082,12.5867797 176.254498,12.5867797 C178.376307,12.5867797 179.448379,11.9755844 179.448379,10.70792 C179.448379,10.209909 179.202695,9.82508228 178.733664,9.59871364 C178.197628,9.34970813 177.214895,9.14597635 175.785466,8.9875183 C174.289032,8.82906025 173.239295,8.55741788 172.636255,8.14995432 C172.033214,7.74249076 171.742861,7.0860217 171.742861,6.22582086 C171.742861,5.34298315 172.077884,4.64124036 172.747929,4.12059248 C173.484978,3.57730774 174.512381,3.30566536 175.874805,3.30566536 C178.733664,3.30566536 180.252433,4.36959799 180.408776,6.52010009" id="Shape"></path>
                </g>
                <g id="Group" transform="translate(0.000000, 18.178571)">
                    <path d="M15.9193671,18.4117857 L0.677974684,18.4117857 C0.430253165,18.4117857 0.299873418,18.3325 0.299873418,18.1739286 C0.325949367,18.1342857 0.325949367,18.1078571 0.325949367,18.0682143 L1.42113924,15.6367857 C1.52544304,15.4121429 1.73405063,15.2932143 2.04696203,15.2932143 L13.8072152,15.2932143 L7.18392405,9.28071429 C5.91924051,8.13107143 5.28037975,6.98142857 5.28037975,5.81857143 C5.28037975,4.47071429 6.03658228,3.30785714 7.56202532,2.30357143 C8.73544304,1.52392857 10.1174684,0.968928571 11.6820253,0.612142857 C12.6859494,0.400714286 13.7029114,0.295 14.7068354,0.295 L30.8739241,0.295 C31.1086076,0.295 31.2129114,0.374285714 31.2129114,0.532857143 C31.2129114,0.5725 31.2129114,0.598928571 31.1868354,0.638571429 L30.1046835,3.09642857 C30.0003797,3.30785714 29.7917722,3.41357143 29.4658228,3.41357143 L17.6403797,3.41357143 L24.1724051,9.50535714 C25.8021519,11.025 26.6105063,12.4257143 26.6105063,13.7075 C26.6105063,15.4914286 25.2024051,16.7864286 22.3731646,17.5925 C20.4696203,18.1342857 18.3183544,18.4117857 15.9193671,18.4117857" id="Shape"></path>
                    <path d="M67.0282278,18.4117857 L55.1636709,18.4117857 C55.0072152,18.4117857 54.9029114,18.3721429 54.8507595,18.2796429 L47.3017722,6.65107143 L34.2246835,15.2932143 L48.2665823,15.2932143 C48.5012658,15.2932143 48.6055696,15.3725 48.6055696,15.5310714 C48.6055696,15.5707143 48.2405063,16.4164286 47.4973418,18.0682143 C47.4060759,18.2928571 47.2105063,18.4117857 46.884557,18.4117857 L26.5583544,18.4117857 C26.284557,18.4117857 26.1411392,18.3457143 26.1411392,18.2003571 C26.1411392,18.0946429 26.2324051,17.9757143 26.4279747,17.8567857 L53.1688608,0.427142857 C53.2862025,0.334642857 53.4426582,0.295 53.6121519,0.295 L56.4153165,0.295 C56.5717722,0.295 56.6891139,0.334642857 56.7673418,0.427142857 C64.0294937,12.0953571 67.6670886,17.9625 67.6670886,18.0153571 C67.6670886,18.2796429 67.458481,18.4117857 67.0282278,18.4117857" id="Shape"></path>
                    <path d="M100.992152,18.4117857 L96.7548101,18.4117857 C96.3506329,18.4117857 95.8291139,18.2796429 95.1772152,18.0153571 L77.0283544,10.7475 L73.7949367,18.0682143 C73.6906329,18.2928571 73.4689873,18.4117857 73.1560759,18.4117857 L69.505443,18.4117857 C69.2577215,18.4117857 69.1273418,18.3325 69.1273418,18.1739286 C69.1273418,18.1342857 69.1403797,18.1078571 69.1534177,18.0682143 L76.9370886,0.638571429 C77.0413924,0.413928571 77.25,0.295 77.5759494,0.295 L81.6568354,0.295 C81.9958228,0.295 82.4391139,0.413928571 83.0127848,0.638571429 L101.500633,8.10464286 L104.825316,0.651785714 C104.916582,0.413928571 105.12519,0.295 105.464177,0.295 L109.101772,0.295 C109.323418,0.295 109.440759,0.374285714 109.440759,0.532857143 C109.440759,0.5725 109.427722,0.598928571 109.414684,0.638571429 L101.631013,18.0682143 C101.539747,18.2928571 101.331139,18.4117857 100.992152,18.4117857" id="Shape"></path>
                    <path d="M149.845443,18.4117857 L140.340759,18.4117857 C140.093038,18.4117857 139.975696,18.3325 139.975696,18.1739286 C139.975696,18.1342857 141.031772,15.7425 143.143924,10.9853571 L131.683544,18.2796429 C131.527089,18.3721429 131.135949,18.4117857 130.523165,18.4117857 C129.753924,18.4117857 129.336709,18.3721429 129.245443,18.2796429 L123.313165,10.9853571 L120.171013,18.0682143 C120.053671,18.2928571 119.845063,18.4117857 119.532152,18.4117857 L115.881519,18.4117857 C115.633797,18.4117857 115.516456,18.3325 115.516456,18.1739286 L123.326203,0.638571429 C123.430506,0.413928571 123.639114,0.295 123.952025,0.295 L127.85038,0.295 C128.006835,0.295 128.124177,0.334642857 128.189367,0.427142857 L135.425443,12.1085714 L154.030633,0.440357143 C154.147975,0.347857143 154.291392,0.295 154.447848,0.295 L157.915949,0.295 C158.163671,0.295 158.281013,0.374285714 158.281013,0.532857143 L150.471266,18.0682143 C150.366962,18.2928571 150.158354,18.4117857 149.845443,18.4117857" id="Shape"></path>
                    <path d="M193.483544,18.4117857 L181.618987,18.4117857 C181.462532,18.4117857 181.358228,18.3721429 181.306076,18.2796429 L173.757089,6.65107143 L160.68,15.2932143 L174.721899,15.2932143 C174.943544,15.2932143 175.060886,15.3725 175.060886,15.5310714 C175.060886,15.5707143 174.695823,16.4164286 173.952658,18.0682143 C173.861392,18.2928571 173.665823,18.4117857 173.339873,18.4117857 L153.013671,18.4117857 C152.726835,18.4117857 152.596456,18.3457143 152.596456,18.2003571 C152.596456,18.0946429 152.687722,17.9757143 152.883291,17.8567857 L179.611139,0.427142857 C179.741519,0.334642857 179.884937,0.295 180.067468,0.295 L182.870633,0.295 C183.027089,0.295 183.14443,0.334642857 183.222658,0.427142857 C190.48481,12.0953571 194.122405,17.9625 194.122405,18.0153571 C194.122405,18.2796429 193.913797,18.4117857 193.483544,18.4117857" id="Shape"></path>
                    <path d="M227.291013,18.4117857 L217.238734,18.4117857 C217.069241,18.4117857 216.964937,18.3721429 216.912785,18.2796429 L211.202152,9.50535714 L211.176076,9.33357143 L212.075696,7.325 C212.18,7.08714286 212.388608,6.98142857 212.714557,6.98142857 L216.117468,6.98142857 C216.808481,6.98142857 217.473418,6.82285714 218.112278,6.53214286 C218.829367,6.18857143 219.311772,5.73928571 219.559494,5.18428571 C219.650759,4.97285714 219.689873,4.77464286 219.689873,4.60285714 C219.689873,3.81 219.037975,3.41357143 217.708101,3.41357143 L212.284304,3.41357143 L205.752278,18.0682143 C205.661013,18.2928571 205.452405,18.4117857 205.113418,18.4117857 L195.608734,18.4117857 C195.361013,18.4117857 195.243671,18.3325 195.243671,18.1739286 L203.053418,0.638571429 C203.157722,0.413928571 203.366329,0.295 203.679241,0.295 L226.417468,0.295 C227.551772,0.295 228.477468,0.519642857 229.194557,0.955714286 C230.081139,1.48428571 230.52443,2.27714286 230.52443,3.33428571 C230.52443,3.91571429 230.394051,4.48392857 230.120253,5.05214286 C229.507468,6.4 228.451392,7.53642857 226.978101,8.46142857 C225.648228,9.25428571 224.174937,9.76964286 222.532152,10.0339286 C226.169747,15.3064286 227.982025,17.9625 227.982025,18.0153571 C227.982025,18.2796429 227.747342,18.4117857 227.291013,18.4117857" id="Shape"></path>
                    <path d="M252.819367,3.41357143 L246.287342,18.0682143 C246.183038,18.2928571 245.97443,18.4117857 245.674557,18.4117857 L236.091646,18.4117857 C235.883038,18.4117857 235.778734,18.3325 235.778734,18.1739286 L242.336835,3.41357143 L234.957342,3.41357143 C234.70962,3.41357143 234.592278,3.33428571 234.592278,3.17571429 C234.592278,3.1625 234.957342,2.31678571 235.700506,0.638571429 C235.80481,0.413928571 236.013418,0.295 236.339367,0.295 L261.880759,0.295 C262.102405,0.295 262.219747,0.374285714 262.219747,0.532857143 C262.219747,0.5725 261.854684,1.41821429 261.111519,3.09642857 C261.007215,3.30785714 260.78557,3.41357143 260.472658,3.41357143 L252.819367,3.41357143 Z" id="Shape"></path>
                    <path d="M265.93557,18.4117857 L256.378734,18.4117857 C256.144051,18.4117857 256.026709,18.3325 256.026709,18.1739286 L263.836456,0.638571429 C263.940759,0.413928571 264.149367,0.295 264.449241,0.295 L274.032152,0.295 C274.240759,0.295 274.345063,0.374285714 274.345063,0.532857143 L266.535316,18.0682143 C266.431013,18.2928571 266.235443,18.4117857 265.93557,18.4117857" id="Shape"></path>
                    <path d="M300.486203,18.4117857 L296.248861,18.4117857 C295.844684,18.4117857 295.310127,18.2796429 294.658228,18.0153571 L276.522405,10.7475 L273.288987,18.0682143 C273.171646,18.2928571 272.963038,18.4117857 272.650127,18.4117857 L268.986456,18.4117857 C268.738734,18.4117857 268.621392,18.3325 268.621392,18.1739286 C268.621392,18.1342857 268.63443,18.1078571 268.647468,18.0682143 L276.431139,0.638571429 C276.535443,0.413928571 276.744051,0.295 277.07,0.295 L281.150886,0.295 C281.476835,0.295 281.933165,0.413928571 282.493797,0.638571429 L300.994684,8.10464286 L304.319367,0.651785714 C304.410633,0.413928571 304.619241,0.295 304.958228,0.295 L308.595823,0.295 C308.817468,0.295 308.93481,0.374285714 308.93481,0.532857143 C308.93481,0.5725 308.921772,0.598928571 308.908734,0.638571429 L301.125063,18.0682143 C301.033797,18.2928571 300.82519,18.4117857 300.486203,18.4117857" id="Shape"></path>
                </g>
            </g>
        </g>
    </g>
</svg>