<?xml version="1.0" encoding="utf-8"?>
<!-- Generator: Adobe Illustrator 16.0.0, SVG Export Plug-In . SVG Version: 6.00 Build 0)  -->
<!DOCTYPE svg PUBLIC "-//W3C//DTD SVG 1.1//EN" "http://www.w3.org/Graphics/SVG/1.1/DTD/svg11.dtd">
<svg version="1.1" id="Layer_1" xmlns="http://www.w3.org/2000/svg" xmlns:xlink="http://www.w3.org/1999/xlink" x="0px" y="0px"
	 width="3000px" height="3000px" viewBox="0 0 3000 3000" enable-background="new 0 0 3000 3000" xml:space="preserve">
<g>
	<rect x="155.333" y="1130.21" fill="#EB0A1E" width="739.581" height="739.58"/>
	<g>
		<path d="M2639.721,1523.063l41.496-108.803l41.43,108.803H2639.721z M2724.281,1352.478h-86.17l-120.414,295.02h74.648
			l27.424-71.995h122.842l27.436,71.995h74.619L2724.281,1352.478z M2116.521,1596.203c-48.631,0-87.982-43.865-87.982-98
			c0-54.142,39.352-98.038,87.982-98.038c48.543,0,87.953,43.896,87.953,98.038
			C2204.475,1552.338,2165.068,1596.203,2116.521,1596.203 M2116.521,1342.366c-86.082,0-155.863,69.775-155.863,155.837
			c0,86.059,69.781,155.802,155.863,155.802c86.025,0,155.84-69.739,155.84-155.802
			C2272.361,1412.138,2202.547,1342.366,2116.521,1342.366 M1501.588,1596.203c-48.543,0-87.923-43.865-87.923-98
			c0-54.142,39.38-98.038,87.923-98.038c48.602,0,87.984,43.896,87.984,98.038
			C1589.576,1552.338,1550.189,1596.203,1501.588,1596.203 M1501.588,1342.366c-86.055,0-155.773,69.775-155.773,155.837
			c0,86.059,69.718,155.802,155.773,155.802c86.055,0,155.838-69.739,155.838-155.802
			C1657.426,1412.138,1587.643,1342.366,1501.588,1342.366 M1886.77,1352.478l-76.357,119.363l-76.416-119.363h-74.68
			l118.205,185.008v110.012h65.734v-109.986l118.191-185.033H1886.77L1886.77,1352.478z M2533.406,1352.478H2281.18v56.572h93.42
			v238.447h65.799v-238.45h93.012v-56.569H2533.406z M1079.808,1409.047h93.449v238.447h65.767v-238.447h93.044v-56.569h-252.26
			V1409.047z"/>
	</g>
	<path fill="#FFFFFF" d="M525.124,1332.106c-139.641,0-246.525,72.01-246.525,167.894c0,92.724,104.156,167.894,246.525,167.894
		c142.37,0,246.526-75.17,246.526-167.894C771.649,1404.116,664.765,1332.106,525.124,1332.106z M678.839,1404.116
		c5.138,20.697-18.972,46.568-96.543,55.027c-5.168-52.715-20.794-97.246-46.709-106.677c34.883,0.982,67.951,6.881,96.777,17.341
		C659.322,1379.978,676.071,1392.954,678.839,1404.116z M563.936,1499.189c0,66.788-20.059,94.471-38.813,94.471
		c-18.753,0-38.812-27.686-38.812-94.471c0-0.233,0.003-0.463,0.003-0.695c12.464,1.054,25.438,1.606,38.809,1.606
		c13.372,0,26.346-0.553,38.809-1.606C563.933,1498.727,563.936,1498.956,563.936,1499.189z M525.11,1461.962
		c-13.081,0-25.179-0.373-36.367-1.062c5.892-43.671,21.543-69.065,36.377-69.065c14.838,0,30.486,25.391,36.378,69.062
		C550.31,1461.589,538.205,1461.962,525.11,1461.962z M371.384,1404.116c2.757-11.104,19.349-24.007,46.066-34.157
		c28.927-10.558,62.156-16.51,97.21-17.496c-25.915,9.432-41.544,53.966-46.711,106.681
		C390.359,1450.688,366.245,1424.816,371.384,1404.116z M314.955,1493.95c0-28.273,9.47-52.71,25.943-72.941
		c2.133,37.489,52.844,65.447,125.151,75.262c-0.008,0.972-0.012,1.943-0.012,2.919c0,90.451,23.189,138.4,48.892,148.305
		C404.548,1643.528,314.955,1575.537,314.955,1493.95z M534.863,1647.508c25.882-10.335,49.348-61.783,49.348-148.318
		c0-0.972-0.003-1.947-0.011-2.919c72.308-9.814,123.017-37.772,125.15-75.262c16.473,20.231,25.943,44.668,25.943,72.941
		C735.293,1575.652,645.452,1643.71,534.863,1647.508z"/>
</g>
</svg>
